<?xml version="1.0" encoding="utf-8"?>
<!-- Generator: Adobe Illustrator 22.1.0, SVG Export Plug-In . SVG Version: 6.00 Build 0)  -->
<svg version="1.1" id="Layer_1" xmlns="http://www.w3.org/2000/svg" xmlns:xlink="http://www.w3.org/1999/xlink" x="0px" y="0px"
	 viewBox="0 0 612 609.6" style="enable-background:new 0 0 612 609.6;" xml:space="preserve">
<style type="text/css">
	.st0{fill:none;stroke:#000000;stroke-miterlimit:10;}
</style>
<polygon class="st0" points="228.9,74.9 132.1,74.9 83.7,158.8 132.1,242.6 228.9,242.6 277.4,158.8 "/>
<polygon class="st0" points="480.1,227.2 311.1,227.2 226.6,373.5 311.1,519.9 480.1,519.9 564.6,373.5 "/>
<polygon class="st0" points="397.5,38.3 281.7,38.3 223.8,138.6 281.7,238.9 397.5,238.9 455.4,138.6 "/>
<polygon class="st0" points="331.5,170.8 174.5,170.8 96,306.8 174.5,442.8 331.5,442.8 410,306.8 "/>
<polygon class="st0" points="258.9,317.6 114.8,317.6 42.7,442.4 114.8,567.2 258.9,567.2 330.9,442.4 "/>
</svg>
