<?xml version="1.0" standalone="no"?>
<!DOCTYPE svg PUBLIC "-//W3C//DTD SVG 20010904//EN"
 "http://www.w3.org/TR/2001/REC-SVG-20010904/DTD/svg10.dtd">
<svg version="1.0" xmlns="http://www.w3.org/2000/svg"
 width="1280.000000pt" height="1202.000000pt" viewBox="0 0 1280.000000 1202.000000"
 preserveAspectRatio="xMidYMid meet">
<g transform="translate(0.000000,1202.000000) scale(0.100000,-0.100000)"
fill="#000000" stroke="none">
<path d="M7468 11975 c-73 -55 -156 -155 -196 -234 -38 -77 -41 -104 -30 -251
l3 -35 -135 -7 c-523 -26 -1087 -105 -1481 -207 l-114 -30 -75 44 c-303 175
-720 394 -875 459 -162 68 -314 115 -401 126 l-86 11 -96 -52 c-102 -54 -229
-138 -256 -168 -8 -9 -30 -78 -47 -152 -29 -120 -32 -151 -33 -301 0 -91 1
-169 4 -172 3 -3 126 -19 273 -35 148 -17 330 -40 405 -52 75 -11 164 -24 197
-29 76 -12 207 -39 213 -45 5 -4 92 -616 92 -644 0 -10 -9 -12 -37 -8 -21 4
-146 12 -278 18 -132 7 -246 17 -253 22 -7 6 -49 71 -94 146 -83 140 -178 284
-221 335 l-24 29 -6 -68 c-14 -152 -142 -339 -282 -411 l-60 -31 -305 -12
c-568 -21 -1002 -68 -1450 -157 l-174 -34 -32 32 c-162 168 -276 295 -337 376
-109 145 -189 263 -183 269 3 3 -12 31 -33 62 -91 136 -254 408 -325 543 l-77
146 -82 -25 c-104 -32 -203 -77 -315 -144 -153 -93 -179 -115 -196 -167 -23
-70 -43 -166 -56 -268 -11 -89 -11 -93 13 -141 82 -162 360 -436 775 -767
l163 -129 -61 -33 c-83 -44 -163 -106 -196 -151 -15 -21 -31 -42 -35 -47 -4
-5 -22 2 -39 14 -17 12 -33 21 -34 19 -2 -2 18 -159 44 -349 51 -363 63 -414
139 -589 108 -248 293 -490 491 -641 324 -247 728 -462 954 -508 45 -9 82 -17
84 -18 1 -1 22 -102 46 -226 58 -299 111 -465 223 -708 128 -277 393 -617 598
-767 39 -28 80 -61 92 -73 22 -23 53 -104 72 -195 21 -94 32 -570 29 -1225
l-3 -654 -30 -8 c-16 -4 -106 -24 -198 -43 -602 -127 -1058 -349 -1169 -570
-17 -32 -36 -93 -44 -135 -16 -90 -19 -192 -4 -170 5 8 10 29 10 45 1 44 40
153 80 219 102 170 255 279 561 399 200 79 596 190 729 204 l60 6 0 -65 c0
-49 -4 -69 -17 -79 -9 -8 -24 -32 -34 -54 -55 -121 20 -233 181 -269 92 -21
289 -21 381 0 153 35 229 156 170 273 -27 52 -47 68 -55 43 -4 -10 -21 -32
-38 -48 l-32 -29 32 38 c38 44 45 69 40 137 -4 60 -15 58 160 30 398 -61 695
-153 1046 -321 35 -16 37 -17 17 -2 -51 38 -208 124 -305 166 -249 109 -745
247 -888 247 l-39 0 4 867 c3 759 6 880 20 961 27 147 33 157 106 171 70 14
160 58 247 121 79 58 265 245 344 348 46 59 68 81 79 76 9 -3 63 -18 121 -32
58 -15 106 -27 108 -28 1 -1 22 -102 46 -226 78 -397 158 -635 307 -909 154
-283 396 -576 601 -728 85 -63 87 -65 93 -114 4 -27 23 -79 41 -115 30 -58 35
-79 44 -181 14 -184 23 -1021 15 -1495 l-8 -432 -106 -18 c-151 -26 -483 -110
-636 -161 -256 -85 -454 -182 -605 -296 -173 -131 -231 -241 -229 -439 1 -89
2 -92 10 -42 33 195 162 389 339 509 101 68 333 170 535 236 230 75 482 139
597 152 29 4 63 8 76 11 21 4 22 1 22 -56 0 -53 -5 -67 -37 -116 -31 -46 -38
-67 -41 -118 -2 -48 1 -68 17 -92 39 -63 111 -101 244 -128 133 -28 301 -15
421 31 126 49 181 149 136 250 -21 48 -58 95 -69 89 -3 -2 -4 25 -3 60 4 76
-12 72 183 44 331 -48 628 -126 829 -217 36 -16 90 -40 120 -54 30 -13 89 -40
130 -61 41 -20 76 -35 78 -34 5 6 -147 97 -245 147 -240 122 -718 272 -998
312 l-90 13 -8 310 c-7 320 -1 1394 10 1568 3 55 15 143 27 195 l21 96 80 20
c146 38 259 110 415 262 l106 102 99 -16 c93 -16 106 -16 198 0 190 33 267 91
267 202 0 44 -28 116 -50 130 -6 4 -10 100 -10 262 l0 255 52 160 c38 121 61
218 92 396 l41 235 85 18 c47 9 98 22 113 28 16 6 32 11 36 11 4 0 42 -51 83
-112 146 -216 325 -408 473 -508 59 -40 75 -57 92 -97 56 -132 63 -236 63
-927 l0 -610 -56 -53 c-30 -29 -91 -76 -135 -104 -44 -29 -78 -53 -77 -55 16
-16 210 56 250 93 17 15 18 5 18 -220 l0 -237 -22 -4 c-13 -3 -81 -17 -153
-31 -450 -91 -822 -234 -1056 -406 -163 -120 -226 -232 -230 -409 -2 -112 1
-150 12 -150 6 0 9 7 5 15 -3 9 -3 36 1 60 l6 45 23 -50 c76 -163 232 -298
352 -303 79 -3 85 36 18 118 -77 93 -118 185 -167 373 -29 113 -69 158 -107
120 -8 -8 -12 -8 -12 -1 0 22 133 154 200 198 87 58 260 140 410 195 196 71
536 161 667 177 l53 6 0 -31 c0 -18 -14 -51 -35 -81 -77 -115 -52 -224 65
-283 152 -78 406 -77 566 2 68 33 88 56 105 123 14 56 1 104 -42 159 -21 27
-29 48 -29 78 0 41 0 41 33 36 17 -3 82 -13 142 -21 301 -42 525 -99 767 -194
125 -50 351 -151 397 -178 l26 -15 -25 21 c-97 83 -293 185 -500 260 -257 94
-655 192 -781 192 l-59 1 0 868 c0 877 4 1002 38 1135 l17 69 65 13 c172 35
360 173 551 404 163 197 280 385 368 591 105 244 149 396 202 697 18 101 38
189 45 195 6 7 58 22 114 35 234 52 587 236 893 464 305 227 517 531 626 894
16 54 110 688 111 747 0 4 -12 1 -26 -9 -26 -17 -27 -17 -37 1 -37 70 -187
176 -342 242 -97 41 -340 124 -412 142 -29 6 -53 16 -53 21 0 15 140 389 177
474 43 99 191 373 212 394 9 9 77 112 151 229 74 117 185 281 246 365 l111
151 -26 34 c-82 105 -454 372 -519 372 -41 0 -197 -42 -309 -83 -105 -39 -124
-56 -182 -167 -127 -242 -236 -647 -414 -1535 -18 -87 -28 -119 -38 -118 -8 1
-63 9 -124 18 -60 8 -164 22 -229 29 l-119 14 -62 68 -61 68 13 55 c31 134 44
237 50 399 4 121 3 172 -5 172 -6 0 -14 -4 -17 -10 -3 -5 -31 17 -62 50 -72
78 -186 148 -343 209 -473 186 -1196 310 -1995 341 -292 12 -362 22 -512 75
-183 65 -286 145 -313 240 -9 31 -11 79 -7 145 3 55 2 100 -3 100 -4 0 -27
-16 -52 -35z m-383 -640 c-16 -8 -73 -34 -126 -58 -111 -51 -160 -95 -232
-211 -41 -64 -57 -81 -100 -103 -77 -38 -235 -131 -290 -170 l-48 -33 -217
128 c-119 71 -262 155 -317 188 l-100 58 95 23 c371 91 934 170 1350 191 8 0
2 -6 -15 -13z m1770 -15 c625 -55 1200 -180 1476 -321 158 -81 219 -149 219
-243 0 -44 -2 -46 -60 -86 -40 -27 -120 -63 -238 -105 -282 -102 -235 -100
-476 -19 l-207 69 6 68 c4 37 4 67 1 67 -3 0 -47 -16 -97 -36 -109 -44 -143
-41 -171 18 -39 81 -284 262 -481 353 l-107 50 0 52 c0 59 -13 99 -42 130
l-20 21 39 -4 c21 -2 92 -8 158 -14z m-3614 -638 c152 -58 395 -159 445 -185
l26 -14 -45 -12 c-45 -13 -50 -12 -279 64 -128 43 -241 85 -252 94 -38 34 -79
111 -59 111 5 0 79 -26 164 -58z m-65 -316 c47 -20 90 -36 95 -36 23 0 5 -17
-36 -34 -25 -10 -82 -40 -127 -67 -45 -27 -91 -49 -104 -49 -25 0 -36 36 -54
180 -6 47 -13 97 -16 112 -5 27 -5 27 75 -21 44 -27 119 -65 167 -85z m5434
45 c-6 -39 -15 -71 -19 -71 -4 0 -24 17 -44 38 l-38 39 53 35 c29 19 55 33 57
32 1 -2 -2 -34 -9 -73z m-7676 -347 c-130 -78 -293 -224 -326 -292 -22 -45
-30 -52 -136 -107 -61 -32 -146 -80 -187 -107 -42 -27 -80 -48 -84 -46 -11 4
-183 161 -344 314 l-118 112 53 11 c209 45 594 100 878 125 364 33 337 34 264
-10z m1911 20 c14 -3 28 -25 44 -67 13 -34 41 -97 62 -139 22 -43 39 -80 39
-83 0 -2 -39 15 -87 38 -49 24 -98 48 -111 53 -21 8 -23 17 -25 80 -2 47 -8
80 -20 97 l-17 27 47 0 c27 0 57 -3 68 -6z m6452 -148 c4 -4 -106 -568 -111
-574 -4 -3 -6 5 -6 19 0 46 -181 195 -393 323 l-28 17 120 75 c67 41 121 78
121 83 0 4 -12 23 -26 42 -52 70 -61 67 139 41 100 -13 183 -25 184 -26z m647
-137 c303 -87 508 -201 552 -304 17 -41 18 -98 3 -126 -25 -47 -128 -97 -357
-173 l-227 -76 -115 39 c-106 35 -115 40 -112 62 4 41 173 599 181 599 2 0 36
-9 75 -21z m-10554 -313 l297 -224 -84 -31 c-47 -17 -94 -31 -105 -31 -12 0
-123 34 -247 75 -206 69 -229 79 -263 114 -89 94 -69 203 56 292 21 16 41 29
44 29 2 0 138 -101 302 -224z m-364 -370 c48 -20 97 -39 110 -42 13 -3 24 -9
24 -13 -1 -3 -34 -21 -76 -40 -41 -19 -111 -56 -156 -83 -45 -26 -82 -47 -83
-46 -9 16 -27 105 -40 198 -8 63 -17 125 -20 137 -4 18 5 15 75 -27 44 -26
119 -64 166 -84z m11550 -3 c-2 -10 -10 -61 -16 -113 -6 -52 -18 -118 -25
-146 l-15 -51 -49 47 c-26 26 -81 67 -120 90 l-72 43 93 42 c51 23 116 56 143
73 59 36 68 38 61 15z m-8851 -3523 c38 -14 93 -61 114 -95 16 -28 17 -48 10
-260 -5 -126 -8 -553 -7 -948 1 -612 -1 -720 -13 -728 -24 -15 -29 -10 -29 26
0 19 -4 35 -10 35 -5 0 -10 -18 -10 -39 0 -38 -1 -40 -50 -56 -46 -15 -53 -15
-105 1 -40 13 -54 22 -50 32 33 87 33 1771 -1 1930 -7 36 -18 41 -29 15 -10
-26 -24 -307 -33 -638 l-7 -290 -5 470 -6 470 25 27 c42 47 145 71 206 48z
m5715 -202 l0 -31 24 22 c32 30 53 23 106 -36 l43 -46 -7 -96 c-3 -53 -6 -495
-6 -983 0 -766 -2 -888 -14 -888 -10 0 -16 13 -19 38 l-4 37 -1 -41 -2 -41
-68 -20 -68 -19 -86 24 -86 25 -1 208 c-1 139 2 209 9 214 7 4 9 43 4 119 -5
80 -3 115 5 120 8 5 11 -13 11 -61 -1 -93 18 -439 26 -485 4 -21 10 -38 14
-38 34 0 44 218 44 1000 0 671 -8 926 -30 983 -6 17 12 24 69 26 35 1 37 -1
37 -31z m-135 -25 c-10 -42 -24 -383 -26 -633 0 -124 -4 -265 -8 -315 l-6 -90
-8 139 c-4 77 -7 270 -8 430 0 160 -4 323 -8 361 -8 69 -8 70 22 103 38 39 51
41 42 5z m-1465 -362 c0 -54 -2 -59 -24 -65 -13 -3 -32 -9 -41 -12 -12 -5 -7
12 22 64 21 40 39 72 41 72 1 0 2 -27 2 -59z m130 -174 c0 -2 -15 -16 -32 -33
l-33 -29 29 33 c28 30 36 37 36 29z m-143 -93 c-3 -3 -12 -4 -19 -1 -8 3 -5 6
6 6 11 1 17 -2 13 -5z m-117 -11 c-51 -3 -81 -9 -95 -21 -20 -17 -20 -17 -1 6
17 20 27 22 95 20 l76 -2 -75 -3z m-140 -83 c-17 -22 -34 -40 -37 -40 -2 0 10
18 27 40 17 22 34 40 37 40 2 0 -10 -18 -27 -40z m-40 -53 c0 -2 -10 -12 -22
-23 l-23 -19 19 23 c18 21 26 27 26 19z m-4010 -593 c6 -214 13 -402 17 -418
5 -26 4 -27 -16 -17 -21 12 -21 13 -21 423 0 226 2 409 5 406 3 -2 9 -180 15
-394z m3045 69 c39 -20 93 -71 109 -103 9 -17 11 -57 7 -130 -7 -121 -20 -120
-25 2 -2 46 -8 103 -12 128 -7 40 -9 42 -15 20 -4 -14 -7 -66 -8 -117 l-1 -91
-29 11 c-32 12 -61 -2 -61 -30 0 -28 30 -71 57 -83 24 -11 28 -19 28 -50 l0
-37 -75 34 c-41 19 -80 37 -86 39 -6 3 -14 39 -17 82 -5 68 -4 77 14 90 10 7
19 19 19 25 0 7 -22 45 -49 83 -73 106 -75 111 -51 124 57 30 137 31 195 3z
m-200 -317 c-4 -45 -6 -389 -6 -766 0 -738 12 -1030 41 -1030 28 0 41 284 42
953 1 340 4 616 7 614 3 -2 24 -11 46 -21 22 -10 66 -31 99 -47 32 -16 64 -29
71 -29 11 0 13 -144 14 -779 1 -770 1 -779 -19 -784 -18 -5 -20 0 -22 41 l-2
47 -3 -47 -4 -47 -72 -24 -71 -23 -98 29 -97 30 0 874 1 873 21 -15 c12 -8 25
-15 29 -15 5 0 8 31 8 69 0 67 -1 71 -30 88 -27 16 -30 22 -30 69 l0 52 40
-16 41 -15 -6 -81z m314 -126 c-1 -38 -6 -59 -13 -57 -10 3 -10 93 0 109 11
18 15 5 13 -52z m-232 -62 c-2 -18 -4 -4 -4 32 0 36 2 50 4 33 2 -18 2 -48 0
-65z m220 -90 c-2 -18 -4 -6 -4 27 0 33 2 48 4 33 2 -15 2 -42 0 -60z m-3286
-15 c13 -16 12 -17 -3 -4 -10 7 -18 15 -18 17 0 8 8 3 21 -13z m34 -43 c10
-11 16 -20 13 -20 -3 0 -13 9 -23 20 -10 11 -16 20 -13 20 3 0 13 -9 23 -20z
m495 -26 c0 -7 -66 -34 -82 -33 -7 0 7 8 32 19 25 10 46 18 48 19 1 1 2 -1 2
-5z m-385 -24 c13 -5 14 -9 5 -9 -8 0 -24 4 -35 9 -13 5 -14 9 -5 9 8 0 24 -4
35 -9z m68 -17 c-7 -2 -21 -2 -30 0 -10 3 -4 5 12 5 17 0 24 -2 18 -5z m205 0
c-10 -2 -26 -2 -35 0 -10 3 -2 5 17 5 19 0 27 -2 18 -5z m-90 -10 c-15 -2 -42
-2 -60 0 -18 2 -6 4 27 4 33 0 48 -2 33 -4z m5437 -123 c21 -22 37 -40 34 -40
-3 0 -23 18 -44 40 -21 22 -37 40 -34 40 3 0 23 -18 44 -40z m581 2 c-17 -16
-18 -16 -5 5 7 12 15 20 18 17 3 -2 -3 -12 -13 -22z m-41 -42 c-3 -5 -16 -15
-28 -21 -19 -9 -19 -8 3 10 28 23 34 26 25 11z m-429 -38 c-5 -4 -66 26 -66
33 0 3 16 -3 35 -12 19 -9 33 -18 31 -21z m41 -8 c-3 -3 -12 -4 -19 -1 -8 3
-5 6 6 6 11 1 17 -2 13 -5z m266 -11 c-7 -2 -19 -2 -25 0 -7 3 -2 5 12 5 14 0
19 -2 13 -5z m-106 -10 c-20 -2 -52 -2 -70 0 -17 2 0 4 38 4 39 0 53 -2 32 -4z
m-3262 -1363 c21 -22 37 -40 34 -40 -3 0 -23 18 -44 40 -21 22 -37 40 -34 40
3 0 23 -18 44 -40z m615 16 c0 -2 -8 -10 -17 -17 -16 -13 -17 -12 -4 4 13 16
21 21 21 13z m-40 -40 c0 -2 -8 -10 -17 -17 -16 -13 -17 -12 -4 4 13 16 21 21
21 13z m-45 -36 c-3 -5 -12 -10 -18 -10 -7 0 -6 4 3 10 19 12 23 12 15 0z
m-405 -20 c8 -5 11 -10 5 -10 -5 0 -17 5 -25 10 -8 5 -10 10 -5 10 6 0 17 -5
25 -10z m307 -16 c-3 -3 -12 -4 -19 -1 -8 3 -5 6 6 6 11 1 17 -2 13 -5z m-199
-11 c-10 -2 -26 -2 -35 0 -10 3 -2 5 17 5 19 0 27 -2 18 -5z m145 0 c-7 -2
-19 -2 -25 0 -7 3 -2 5 12 5 14 0 19 -2 13 -5z"/>
<path d="M6525 4020 c10 -11 20 -20 23 -20 3 0 -3 9 -13 20 -10 11 -20 20 -23
20 -3 0 3 -9 13 -20z"/>
<path d="M6450 3685 c0 -7 101 -57 106 -53 2 2 -21 16 -51 31 -30 15 -55 25
-55 22z"/>
<path d="M6020 4109 c0 -13 5 -31 10 -39 7 -11 8 -5 4 20 -8 43 -14 51 -14 19z"/>
<path d="M6040 4045 c0 -5 5 -17 10 -25 5 -8 10 -10 10 -5 0 6 -5 17 -10 25
-5 8 -10 11 -10 5z"/>
<path d="M2031 2963 c-67 -65 -80 -110 -58 -199 29 -116 116 -239 215 -303 53
-34 162 -66 192 -56 27 9 25 44 -4 86 -124 171 -140 204 -187 378 -43 158 -73
176 -158 94z"/>
<path d="M5345 2926 c-14 -18 -32 -57 -41 -87 -9 -30 -37 -97 -63 -149 -56
-115 -127 -192 -254 -275 -48 -31 -87 -59 -87 -62 0 -8 80 8 139 28 83 29 184
93 262 166 109 103 145 202 119 328 -19 94 -34 104 -75 51z"/>
<path d="M1940 2701 c0 -46 62 -152 133 -225 64 -66 65 -66 13 -8 -64 72 -103
136 -128 207 -11 32 -17 42 -18 26z"/>
<path d="M11130 2678 c-11 -18 -34 -76 -51 -128 -17 -52 -45 -122 -62 -155
-42 -80 -152 -189 -257 -254 l-85 -53 53 5 c117 13 344 155 427 268 55 74 70
129 61 226 -9 117 -46 156 -86 91z"/>
<path d="M5452 2680 c0 -14 2 -19 5 -12 2 6 2 18 0 25 -3 6 -5 1 -5 -13z"/>
<path d="M1932 2640 c0 -14 2 -19 5 -12 2 6 2 18 0 25 -3 6 -5 1 -5 -13z"/>
<path d="M5380 2548 c-15 -21 -17 -28 -6 -19 16 13 41 51 33 51 -2 0 -14 -15
-27 -32z"/>
<path d="M5290 2448 c-36 -34 -51 -52 -35 -41 29 21 114 103 105 103 -3 -1
-34 -29 -70 -62z"/>
<path d="M2472 2368 c-19 -19 -15 -34 18 -72 37 -42 73 -53 106 -31 39 25 32
60 -19 90 -47 27 -86 32 -105 13z"/>
<path d="M5163 2349 c-35 -22 -46 -37 -15 -20 22 13 58 40 52 41 -3 0 -20 -10
-37 -21z"/>
<path d="M5074 2294 c-18 -14 -18 -14 6 -3 31 14 36 19 24 19 -6 0 -19 -7 -30
-16z"/>
<path d="M4990 2250 c-9 -6 -10 -10 -3 -10 6 0 15 5 18 10 8 12 4 12 -15 0z"/>
<path d="M4920 2220 c-19 -11 -32 -19 -29 -20 11 0 79 30 79 35 0 9 -14 5 -50
-15z"/>
<path d="M4805 2174 c-33 -14 -85 -32 -115 -41 -30 -9 -50 -18 -44 -20 11 -4
190 58 222 76 29 18 -1 10 -63 -15z"/>
<path d="M8198 2119 c-27 -15 -22 -35 18 -79 41 -45 88 -54 117 -22 30 32 20
50 -43 82 -66 33 -68 34 -92 19z"/>
<path d="M4570 2098 c-19 -6 -82 -21 -140 -33 -58 -13 -95 -24 -82 -24 25 -1
282 58 282 65 0 6 -21 3 -60 -8z"/>
<path d="M2848 2083 c7 -3 16 -2 19 1 4 3 -2 6 -13 5 -11 0 -14 -3 -6 -6z"/>
<path d="M2888 2073 c7 -3 16 -2 19 1 4 3 -2 6 -13 5 -11 0 -14 -3 -6 -6z"/>
<path d="M2928 2063 c6 -2 18 -2 25 0 6 3 1 5 -13 5 -14 0 -19 -2 -12 -5z"/>
<path d="M2990 2050 c14 -4 34 -8 45 -8 16 0 15 2 -5 8 -14 4 -34 8 -45 8 -16
0 -15 -2 5 -8z"/>
<path d="M3088 2033 c6 -2 18 -2 25 0 6 3 1 5 -13 5 -14 0 -19 -2 -12 -5z"/>
<path d="M4235 2030 l-40 -7 35 0 c19 -1 49 3 65 7 27 7 27 8 5 7 -14 0 -43
-3 -65 -7z"/>
<path d="M3143 2023 c9 -2 25 -2 35 0 9 3 1 5 -18 5 -19 0 -27 -2 -17 -5z"/>
<path d="M3223 2013 c9 -2 25 -2 35 0 9 3 1 5 -18 5 -19 0 -27 -2 -17 -5z"/>
<path d="M4143 2013 c9 -2 25 -2 35 0 9 3 1 5 -18 5 -19 0 -27 -2 -17 -5z"/>
<path d="M3313 2003 c15 -2 39 -2 55 0 15 2 2 4 -28 4 -30 0 -43 -2 -27 -4z"/>
<path d="M4043 2003 c15 -2 39 -2 55 0 15 2 2 4 -28 4 -30 0 -43 -2 -27 -4z"/>
<path d="M3448 1993 c18 -2 45 -2 60 0 15 2 0 4 -33 4 -33 0 -45 -2 -27 -4z"/>
<path d="M3898 1993 c18 -2 45 -2 60 0 15 2 0 4 -33 4 -33 0 -45 -2 -27 -4z"/>
<path d="M3658 1983 c29 -2 74 -2 100 0 26 2 2 3 -53 3 -55 0 -76 -1 -47 -3z"/>
<path d="M4715 1228 c-113 -99 -113 -227 0 -383 61 -84 141 -159 204 -190 66
-34 160 -45 179 -22 17 20 8 37 -64 132 -69 92 -118 199 -155 343 -17 64 -37
127 -45 140 -23 35 -63 29 -119 -20z"/>
<path d="M8296 1180 c-14 -17 -39 -73 -54 -123 -66 -211 -161 -334 -347 -447
-100 -62 -119 -80 -83 -80 39 0 133 36 227 86 175 93 285 200 331 322 24 63
23 150 -2 227 -16 50 -38 55 -72 15z"/>
<path d="M4594 947 c8 -106 123 -264 275 -376 279 -206 707 -348 1216 -403
157 -17 692 -17 840 0 276 32 526 86 725 156 108 39 350 151 385 180 11 9 -32
-10 -95 -42 -293 -148 -604 -233 -1035 -283 -148 -18 -645 -18 -800 -1 -430
48 -754 139 -1053 297 -247 131 -416 309 -452 477 l-9 43 3 -48z"/>
<path d="M8366 833 c-6 -14 -5 -15 5 -6 7 7 10 15 7 18 -3 3 -9 -2 -12 -12z"/>
<path d="M8340 790 c-6 -11 -8 -20 -6 -20 3 0 10 9 16 20 6 11 8 20 6 20 -3 0
-10 -9 -16 -20z"/>
<path d="M8235 667 c-82 -85 -81 -89 3 -12 31 28 98 105 90 105 -1 -1 -43 -42
-93 -93z"/>
<path d="M5188 579 c-30 -17 -21 -54 22 -93 47 -42 78 -45 116 -13 23 20 25
26 16 44 -11 20 -104 73 -126 73 -6 0 -19 -5 -28 -11z"/>
<path d="M8097 555 c-20 -14 -37 -28 -37 -31 0 -7 59 29 72 44 16 18 7 15 -35
-13z"/>
</g>
</svg>
